<mxfile host="app.diagrams.net" modified="2020-11-06T09:39:15.202Z" agent="5.0 (Windows NT 10.0; Win64; x64) AppleWebKit/537.36 (KHTML, like Gecko) Chrome/86.0.4240.111 Safari/537.36" etag="yKtqw4Ml_6iN19IIejuX" version="13.9.2" type="github">
  <diagram id="C5RBs43oDa-KdzZeNtuy" name="Page-1">
    <mxGraphModel dx="1422" dy="794" grid="1" gridSize="10" guides="1" tooltips="1" connect="1" arrows="1" fold="1" page="1" pageScale="1" pageWidth="827" pageHeight="1169" math="0" shadow="0">
      <root>
        <mxCell id="WIyWlLk6GJQsqaUBKTNV-0" />
        <mxCell id="WIyWlLk6GJQsqaUBKTNV-1" parent="WIyWlLk6GJQsqaUBKTNV-0" />
        <mxCell id="C7fpZe1aZcTTWDoONEir-0" value="" style="rounded=1;whiteSpace=wrap;html=1;" vertex="1" parent="WIyWlLk6GJQsqaUBKTNV-1">
          <mxGeometry x="340" y="30" width="120" height="60" as="geometry" />
        </mxCell>
        <mxCell id="C7fpZe1aZcTTWDoONEir-10" value="" style="edgeStyle=orthogonalEdgeStyle;rounded=0;orthogonalLoop=1;jettySize=auto;html=1;" edge="1" parent="WIyWlLk6GJQsqaUBKTNV-1" source="C7fpZe1aZcTTWDoONEir-1" target="C7fpZe1aZcTTWDoONEir-2">
          <mxGeometry relative="1" as="geometry" />
        </mxCell>
        <mxCell id="C7fpZe1aZcTTWDoONEir-1" value="Start" style="text;strokeColor=none;fillColor=none;html=1;fontSize=24;fontStyle=1;verticalAlign=middle;align=center;" vertex="1" parent="WIyWlLk6GJQsqaUBKTNV-1">
          <mxGeometry x="350" y="40" width="100" height="40" as="geometry" />
        </mxCell>
        <mxCell id="C7fpZe1aZcTTWDoONEir-11" value="" style="edgeStyle=orthogonalEdgeStyle;rounded=0;orthogonalLoop=1;jettySize=auto;html=1;" edge="1" parent="WIyWlLk6GJQsqaUBKTNV-1" source="C7fpZe1aZcTTWDoONEir-2" target="C7fpZe1aZcTTWDoONEir-4">
          <mxGeometry relative="1" as="geometry" />
        </mxCell>
        <mxCell id="C7fpZe1aZcTTWDoONEir-2" value="Datorn slumpar ett tal mellan 1 och 100 och lagrar det i en variabel" style="shape=parallelogram;perimeter=parallelogramPerimeter;whiteSpace=wrap;html=1;fixedSize=1;" vertex="1" parent="WIyWlLk6GJQsqaUBKTNV-1">
          <mxGeometry x="325" y="130" width="150" height="60" as="geometry" />
        </mxCell>
        <mxCell id="C7fpZe1aZcTTWDoONEir-16" value="" style="edgeStyle=orthogonalEdgeStyle;rounded=0;orthogonalLoop=1;jettySize=auto;html=1;" edge="1" parent="WIyWlLk6GJQsqaUBKTNV-1" source="C7fpZe1aZcTTWDoONEir-4" target="C7fpZe1aZcTTWDoONEir-8">
          <mxGeometry relative="1" as="geometry" />
        </mxCell>
        <mxCell id="C7fpZe1aZcTTWDoONEir-4" value="Användaren matar in en gissning och det lagras i en variabel" style="shape=parallelogram;perimeter=parallelogramPerimeter;whiteSpace=wrap;html=1;fixedSize=1;" vertex="1" parent="WIyWlLk6GJQsqaUBKTNV-1">
          <mxGeometry x="315" y="220" width="170" height="60" as="geometry" />
        </mxCell>
        <mxCell id="C7fpZe1aZcTTWDoONEir-8" value="Medans dem 2 variablarna inte är lika stora så ska detta repeteras" style="shape=parallelogram;perimeter=parallelogramPerimeter;whiteSpace=wrap;html=1;fixedSize=1;" vertex="1" parent="WIyWlLk6GJQsqaUBKTNV-1">
          <mxGeometry x="180" y="320" width="225" height="70" as="geometry" />
        </mxCell>
        <mxCell id="C7fpZe1aZcTTWDoONEir-17" value="" style="shape=parallelogram;perimeter=parallelogramPerimeter;whiteSpace=wrap;html=1;fixedSize=1;" vertex="1" parent="WIyWlLk6GJQsqaUBKTNV-1">
          <mxGeometry x="490" y="325" width="210" height="60" as="geometry" />
        </mxCell>
      </root>
    </mxGraphModel>
  </diagram>
</mxfile>
